<?xml version="1.0" encoding="utf-8"?>
<!-- Generator: Adobe Illustrator 25.1.0, SVG Export Plug-In . SVG Version: 6.00 Build 0)  -->
<svg version="1.1" id="Layer_1" xmlns="http://www.w3.org/2000/svg" xmlns:xlink="http://www.w3.org/1999/xlink" x="0px" y="0px"
	 viewBox="0 0 20 20" style="enable-background:new 0 0 20 20;" xml:space="preserve">
<style type="text/css">
	.st0{fill:none;}
</style>
<path class="st0" d="M16.9,8.6c0-0.1,0-0.2,0-0.4c0-2.9-2.3-5.2-5.2-5.2c-2,0-3.7,1.1-4.6,2.8c-0.3-0.1-0.7-0.2-1-0.2
	c-1.7,0-3,1.3-3,3c0,0.2,0,0.4,0.1,0.6c-1.5,0.5-2.6,2-2.6,3.7c0,2.1,1.7,3.9,3.9,3.9h10.8c2.4,0,4.3-1.9,4.3-4.3
	C19.5,10.8,18.4,9.3,16.9,8.6"/>
</svg>
