<?xml version="1.0" encoding="utf-8"?>
<!-- Generator: Adobe Illustrator 25.1.0, SVG Export Plug-In . SVG Version: 6.00 Build 0)  -->
<svg version="1.1" id="Layer_1" xmlns="http://www.w3.org/2000/svg" xmlns:xlink="http://www.w3.org/1999/xlink" x="0px" y="0px"
	 viewBox="0 0 20 20" style="enable-background:new 0 0 20 20;" xml:space="preserve">
<path d="M9.7,17.1l-6.6-6.5C2.9,10.3,2.7,10,2.5,9.7C1.4,7.9,1.7,5.6,3.2,4.1c0.9-0.9,2-1.3,3.2-1.3c1.9,0,3.1,1.1,3.6,1.8
	c0.5-0.6,1.7-1.8,3.6-1.8c1.2,0,2.4,0.5,3.2,1.3c1.5,1.5,1.8,3.8,0.7,5.5c-0.2,0.3-0.4,0.6-0.7,0.9l-6.6,6.5
	C10.1,17.2,9.9,17.2,9.7,17.1"/>
</svg>
