<?xml version="1.0" encoding="utf-8"?>
<!-- Generator: Adobe Illustrator 25.1.0, SVG Export Plug-In . SVG Version: 6.00 Build 0)  -->
<svg version="1.1" id="Layer_1" xmlns="http://www.w3.org/2000/svg" xmlns:xlink="http://www.w3.org/1999/xlink" x="0px" y="0px"
	 viewBox="0 0 20 20" style="enable-background:new 0 0 20 20;" xml:space="preserve">
<style type="text/css">
	.st0{fill:none;}
</style>
<path class="st0" d="M15.9,4c-0.3-0.3-0.7-0.3-1,0c0,0-3.4,2.7-4.7,2.7C8.8,6.8,5.5,4,5.5,4c-0.3-0.3-0.7-0.3-1,0s-0.3,0.7,0,1
	c0,0,2.7,3.4,2.7,4.7c0,1.4-2.7,4.7-2.7,4.7c-0.3,0.3-0.3,0.7,0,1c0.1,0.1,0.3,0.2,0.5,0.2c0.2,0,0.4-0.1,0.5-0.2
	c0,0,3.4-2.7,4.7-2.7c1.4,0,4.7,2.7,4.7,2.7c0.1,0.1,0.3,0.2,0.5,0.2c0.2,0,0.4-0.1,0.5-0.2c0.3-0.3,0.3-0.7,0-1
	c0,0-2.7-3.4-2.7-4.7S15.9,5,15.9,5C16.2,4.8,16.2,4.3,15.9,4z"/>
</svg>
