<?xml version="1.0" encoding="utf-8"?>
<!-- Generator: Adobe Illustrator 25.1.0, SVG Export Plug-In . SVG Version: 6.00 Build 0)  -->
<svg version="1.1" id="Layer_1" xmlns="http://www.w3.org/2000/svg" xmlns:xlink="http://www.w3.org/1999/xlink" x="0px" y="0px"
	 viewBox="0 0 20 20" style="enable-background:new 0 0 20 20;" xml:space="preserve">
<style type="text/css">
	.st0{fill:none;}
</style>
<path class="st0" d="M5.6,6.4C5.5,6.5,3.1,8.5,1.9,7.7C0.7,7,0.9,3.5,2.8,2.3c1.9-1.3,5,0.1,5.8,1.9c0.7,1.7-1.1,2.8-0.8,6
	c0,0.4,0.4,3.7,2.5,4.5c1,0.4,2.5,0.1,3.2-0.8c0.9-1.2,0.3-3.2-0.7-4.2c-1.6-1.6-4.7-1-6.3,0.6c-0.2,0.2-1.4,1.5-1.2,3.3
	c0.3,2.4,2.9,3.5,3.5,3.8c3,1.3,7.9,0.9,9.6-2.4c1.9-3.5-0.9-8.5-4.7-10C9.9,3.7,6.4,5.8,6,6.1"/>
</svg>
