<?xml version="1.0" encoding="utf-8"?>
<!-- Generator: Adobe Illustrator 25.0.1, SVG Export Plug-In . SVG Version: 6.00 Build 0)  -->
<svg version="1.1" id="Layer_1" xmlns="http://www.w3.org/2000/svg" xmlns:xlink="http://www.w3.org/1999/xlink" x="0px" y="0px"
	 viewBox="0 0 667 101" style="enable-background:new 0 0 667 101;" xml:space="preserve">
<style type="text/css">
	.st0{fill:#050505;}
</style>
<g>
	<path class="st0" d="M60.7,71.1h-5.8L41.3,32.8h5.9L58,65.5l11.4-32.7h5.4L60.7,71.1z"/>
	<path class="st0" d="M80.5,32.8h5.3v38.3h-5.3V32.8z"/>
	<path class="st0" d="M99.1,59.9c0.1,2.6,0.4,7.6,9.2,7.6c7.9,0,9-4.9,9-6.8c0-4.3-3.4-5.1-8.8-6.5c-5.8-1.4-8.4-2.1-10.4-3.4
		c-3.1-2.1-4-5-4-7.5c0-7.8,7.4-11.2,14.6-11.2c2.5,0,7.7,0.4,10.8,3.8c2.1,2.3,2.2,4.9,2.3,6.5h-5.5c-0.3-4.8-4.3-5.8-8.1-5.8
		c-5.3,0-8.5,2.4-8.5,6.2c0,3.4,2.2,4.6,6.9,5.7c9.1,2.3,10.1,2.5,12.3,4c3.6,2.3,3.8,6,3.8,7.6c0,6.8-5.3,11.9-15.1,11.9
		c-2.9,0-8.9-0.5-11.9-4.3c-2.2-2.8-2.2-5.9-2.2-7.7H99.1z"/>
	<path class="st0" d="M130.6,32.8h5.3v38.3h-5.3V32.8z"/>
	<path class="st0" d="M154.6,71.1V37.3h-12.8v-4.5h30.9v4.5h-12.8v33.8H154.6z"/>
	<path class="st0" d="M191.8,32.8h24v4.5h-18.7v11.9H215v4.5h-17.8v12.7h19.1v4.7h-24.4V32.8z"/>
	<path class="st0" d="M229.6,32.8l10.3,14.7l10.3-14.7h6.4L243,51.1l14.3,19.9h-6.7l-11.4-16.4l-11.7,16.4h-6.4L236,51l-13.2-18.2
		H229.6z"/>
	<path class="st0" d="M268.4,32.8v16.4h18.2V32.8h5.3v38.3h-5.3V53.8h-18.2v17.3h-5.3V32.8H268.4z"/>
	<path class="st0" d="M301.4,32.8h5.3v38.3h-5.3V32.8z"/>
	<path class="st0" d="M316.5,32.8h13.7c4.7,0,7.3,0.5,9.6,2.8c1.6,1.6,2.7,3.8,2.7,6.8c0,6.3-4.6,7.9-6.5,8.6
		c2.2,0.6,7.6,2.2,7.6,9.5c0,5.2-3.3,7.8-4.6,8.7c-2.6,1.7-5.6,1.7-8.6,1.7h-13.9V32.8z M321.6,49h7.4c1.8,0,7.9,0,7.9-6
		c0-5.8-4.8-5.8-7.7-5.8h-7.6V49z M321.6,66.8h9.1c4.2,0,7.5-2.2,7.5-6.6c0-3.8-2.6-6.6-7.3-6.6h-9.3V66.8z"/>
	<path class="st0" d="M351.5,32.8h5.3v38.3h-5.3V32.8z"/>
	<path class="st0" d="M375.5,71.1V37.3h-12.8v-4.5h30.9v4.5h-12.8v33.8H375.5z"/>
	<path class="st0" d="M398.6,32.8h5.3v38.3h-5.3V32.8z"/>
	<path class="st0" d="M416.7,36.9c4-4.3,9.2-5.1,12.8-5.1c10.6,0,17.3,6.8,17.3,19.8c0,10.2-4.1,20.4-17.7,20.4
		c-13,0-17.3-9.3-17.3-19.8C411.8,47.8,412.5,41.4,416.7,36.9z M420.8,64c2.2,2.7,5.5,3.5,8.5,3.5c3.1,0,6.3-0.8,8.5-3.5
		c3.1-3.8,3.4-9.9,3.4-12.5c0-8.7-2.9-15.3-11.6-15.3c-9.7,0-12.2,7.8-12.2,15.6C417.4,56.1,418.1,60.7,420.8,64z"/>
	<path class="st0" d="M454.9,32.8h7.4l18.8,31.6V32.8h4.9v38.3h-6.8l-19.4-32.5v32.5h-4.8V32.8z"/>
	<path class="st0" d="M514.4,59.9c0.1,2.6,0.4,7.6,9.2,7.6c7.9,0,9-4.9,9-6.8c0-4.3-3.4-5.1-8.8-6.5c-5.8-1.4-8.4-2.1-10.4-3.4
		c-3.1-2.1-4-5-4-7.5c0-7.8,7.4-11.2,14.6-11.2c2.5,0,7.7,0.4,10.8,3.8c2.1,2.3,2.2,4.9,2.3,6.5h-5.5c-0.3-4.8-4.3-5.8-8.1-5.8
		c-5.3,0-8.5,2.4-8.5,6.2c0,3.4,2.2,4.6,6.9,5.7c9.1,2.3,10.1,2.5,12.3,4c3.6,2.3,3.8,6,3.8,7.6c0,6.8-5.3,11.9-15.1,11.9
		c-2.9,0-8.9-0.5-11.9-4.3c-2.2-2.8-2.2-5.9-2.2-7.7H514.4z"/>
	<path class="st0" d="M545.9,32.8h5.3v38.3h-5.3V32.8z"/>
	<path class="st0" d="M569.9,71.1V37.3h-12.8v-4.5H588v4.5h-12.8v33.8H569.9z"/>
	<path class="st0" d="M592.4,32.8h24v4.5h-18.7v11.9h17.8v4.5h-17.8v12.7h19.1v4.7h-24.4V32.8z"/>
</g>
<g>
	<g>
		<path class="st0" d="M617.8,92.8H46.1C24.1,92.8,6.2,75,6.2,53v-2c0-22,17.9-39.9,39.9-39.9h571.7c22,0,39.9,17.9,39.9,39.9v2
			C657.7,75,639.8,92.8,617.8,92.8z M46.1,13.7c-20.5,0-37.3,16.7-37.3,37.3v2c0,20.5,16.7,37.3,37.3,37.3h571.7
			c20.5,0,37.3-16.7,37.3-37.3v-2c0-20.5-16.7-37.3-37.3-37.3H46.1z"/>
	</g>
</g>
</svg>
